<svg xmlns="http://www.w3.org/2000/svg" viewBox="0 0 220 24">
  <path d="M14.2 3.6L21.8 16.8C22.9 18.7 22.2 21.1 20.3 22.2C18.4 23.3 16 22.6 14.9 20.7L7.3 7.5C6.2 5.6 6.9 3.2 8.8 2.1C10.7 1 13.1 1.7 14.2 3.6Z" fill="#4285F4"/>
  <path d="M9.8 3.6L2.2 16.8C1.1 18.7 1.8 21.1 3.7 22.2C5.6 23.3 8 22.6 9.1 20.7L16.7 7.5C17.8 5.6 17.1 3.2 15.2 2.1C13.3 1 10.9 1.7 9.8 3.6Z" fill="#FBBC04"/>
  <circle cx="4" cy="19.5" r="4" fill="#34A853"/>
  <text x="32" y="17.5" font-family="Arial, Helvetica, sans-serif" font-size="16" font-weight="500" fill="#5F6368">Google Ads</text>
</svg>
